<svg xmlns="http://www.w3.org/2000/svg" xmlns:xlink="http://www.w3.org/1999/xlink" width="700" height="600" class="main-svg" viewBox="0 0 700 600"><rect width="700" height="600" x="0" y="0" style="fill:#fff;fill-opacity:1"/><defs id="defs-8a91a0"><g class="clips"><clipPath id="clip8a91a0xyplot" class="plotclip"><rect width="521" height="373"/></clipPath><clipPath id="clip8a91a0x" class="axesclip"><rect width="521" height="600" x="86" y="0"/></clipPath><clipPath id="clip8a91a0y" class="axesclip"><rect width="700" height="373" x="0" y="60"/></clipPath><clipPath id="clip8a91a0xy" class="axesclip"><rect width="521" height="373" x="86" y="60"/></clipPath></g></defs><g class="bglayer"><rect width="541" height="393" x="76" y="50" class="bg" style="fill:#fff;fill-opacity:1;stroke-width:0"/></g><g class="cartesianlayer"><g class="subplot xy"><g class="gridlayer"><g class="y"><path d="M86,0h521" class="ygrid crisp" transform="translate(0,370.31)" style="stroke:#e5ecf6;stroke-opacity:1;stroke-width:1px"/><path d="M86,0h521" class="ygrid crisp" transform="translate(0,307.62)" style="stroke:#e5ecf6;stroke-opacity:1;stroke-width:1px"/><path d="M86,0h521" class="ygrid crisp" transform="translate(0,244.93)" style="stroke:#e5ecf6;stroke-opacity:1;stroke-width:1px"/><path d="M86,0h521" class="ygrid crisp" transform="translate(0,182.24)" style="stroke:#e5ecf6;stroke-opacity:1;stroke-width:1px"/><path d="M86,0h521" class="ygrid crisp" transform="translate(0,119.55)" style="stroke:#e5ecf6;stroke-opacity:1;stroke-width:1px"/></g></g><g class="zerolinelayer"><path d="M86,0h521" class="yzl zl crisp" transform="translate(0,433)" style="stroke:#fff;stroke-opacity:1;stroke-width:2px"/></g><path class="xlines-below"/><path class="ylines-below"/><g class="plot" clip-path="url(#clip8a91a0xyplot)" transform="translate(86,60)"><g class="barlayer mlayer"><g class="trace bars" style="opacity:1"><g class="points"><g class="point"><path d="M4.74,373V179.61H23.68V373Z" style="vector-effect:none;opacity:1;stroke-width:.5px;fill:#636efa;fill-opacity:1;stroke:#e5ecf6;stroke-opacity:1"/><text x="0" y="0" class="bartext bartext-outside" data-notex="1" text-anchor="middle" style="font-family:'Open Sans',verdana,arial,sans-serif;font-size:12px;fill:#2a3f5f;fill-opacity:1;white-space:pre" transform="translate(14.1475,164.219375)rotate(-90 0.0625 -4.5)">61.7%</text></g><g class="point"><path d="M52.1,373V275.74H71.05V373Z" style="vector-effect:none;opacity:1;stroke-width:.5px;fill:#636efa;fill-opacity:1;stroke:#e5ecf6;stroke-opacity:1"/><text x="0" y="0" class="bartext bartext-outside" data-notex="1" text-anchor="middle" style="font-family:'Open Sans',verdana,arial,sans-serif;font-size:12px;fill:#2a3f5f;fill-opacity:1;white-space:pre" transform="translate(61.5125,260.349375)rotate(-90 0.0625 -4.5)">31.0%</text></g><g class="point"><path d="M146.83,373V339.74H165.77V373Z" style="vector-effect:none;opacity:1;stroke-width:.5px;fill:#636efa;fill-opacity:1;stroke:#e5ecf6;stroke-opacity:1"/><text x="0" y="0" class="bartext bartext-outside" data-notex="1" text-anchor="middle" style="font-family:'Open Sans',verdana,arial,sans-serif;font-size:12px;fill:#2a3f5f;fill-opacity:1;white-space:pre" transform="translate(156.2375,324.349375)rotate(-90 0.0625 -4.5)">10.6%</text></g><g class="point"><path d="M99.46,373V321.62H118.41V373Z" style="vector-effect:none;opacity:1;stroke-width:.5px;fill:#636efa;fill-opacity:1;stroke:#e5ecf6;stroke-opacity:1"/><text x="0" y="0" class="bartext bartext-outside" data-notex="1" text-anchor="middle" style="font-family:'Open Sans',verdana,arial,sans-serif;font-size:12px;fill:#2a3f5f;fill-opacity:1;white-space:pre" transform="translate(108.8725,306.229375)rotate(-90 0.0625 -4.5)">16.4%</text></g><g class="point"><path d="M241.55,373V355.62H260.5V373Z" style="vector-effect:none;opacity:1;stroke-width:.5px;fill:#636efa;fill-opacity:1;stroke:#e5ecf6;stroke-opacity:1"/><text x="0" y="0" class="bartext bartext-outside" data-notex="1" text-anchor="middle" style="font-family:'Open Sans',verdana,arial,sans-serif;font-size:12px;fill:#2a3f5f;fill-opacity:1;white-space:pre" transform="translate(250.9625,343.65125)rotate(-90 0.0625 -4.5)">5.5%</text></g><g class="point"><path d="M336.28,373V365.79H355.23V373Z" style="vector-effect:none;opacity:1;stroke-width:.5px;fill:#636efa;fill-opacity:1;stroke:#e5ecf6;stroke-opacity:1"/><text x="0" y="0" class="bartext bartext-outside" data-notex="1" text-anchor="middle" style="font-family:'Open Sans',verdana,arial,sans-serif;font-size:12px;fill:#2a3f5f;fill-opacity:1;white-space:pre" transform="translate(345.6925,353.82125)rotate(-90 0.0625 -4.5)">2.3%</text></g><g class="point"><path d="M383.65,373V370.73H402.59V373Z" style="vector-effect:none;opacity:1;stroke-width:.5px;fill:#636efa;fill-opacity:1;stroke:#e5ecf6;stroke-opacity:1"/><text x="0" y="0" class="bartext bartext-outside" data-notex="1" text-anchor="middle" style="font-family:'Open Sans',verdana,arial,sans-serif;font-size:12px;fill:#2a3f5f;fill-opacity:1;white-space:pre" transform="translate(393.0575,358.76125)rotate(-90 0.0625 -4.5)">0.7%</text></g><g class="point"><path d="M431.01,373V372.28H449.95V373Z" style="vector-effect:none;opacity:1;stroke-width:.5px;fill:#636efa;fill-opacity:1;stroke:#e5ecf6;stroke-opacity:1"/><text x="0" y="0" class="bartext bartext-outside" data-notex="1" text-anchor="middle" style="font-family:'Open Sans',verdana,arial,sans-serif;font-size:12px;fill:#2a3f5f;fill-opacity:1;white-space:pre" transform="translate(440.4175,360.31125)rotate(-90 0.0625 -4.5)">0.2%</text></g><g class="point"><path d="M478.37,373V372.34H497.32V373Z" style="vector-effect:none;opacity:1;stroke-width:.5px;fill:#636efa;fill-opacity:1;stroke:#e5ecf6;stroke-opacity:1"/><text x="0" y="0" class="bartext bartext-outside" data-notex="1" text-anchor="middle" style="font-family:'Open Sans',verdana,arial,sans-serif;font-size:12px;fill:#2a3f5f;fill-opacity:1;white-space:pre" transform="translate(487.7825,360.37125)rotate(-90 0.0625 -4.5)">0.2%</text></g><g class="point"><path d="M194.19,373V345.12H213.14V373Z" style="vector-effect:none;opacity:1;stroke-width:.5px;fill:#636efa;fill-opacity:1;stroke:#e5ecf6;stroke-opacity:1"/><text x="0" y="0" class="bartext bartext-outside" data-notex="1" text-anchor="middle" style="font-family:'Open Sans',verdana,arial,sans-serif;font-size:12px;fill:#2a3f5f;fill-opacity:1;white-space:pre" transform="translate(203.6025,333.15125)rotate(-90 0.0625 -4.5)">8.9%</text></g><g class="point"><path d="M288.92,373V359.69H307.86V373Z" style="vector-effect:none;opacity:1;stroke-width:.5px;fill:#636efa;fill-opacity:1;stroke:#e5ecf6;stroke-opacity:1"/><text x="0" y="0" class="bartext bartext-outside" data-notex="1" text-anchor="middle" style="font-family:'Open Sans',verdana,arial,sans-serif;font-size:12px;fill:#2a3f5f;fill-opacity:1;white-space:pre" transform="translate(298.3275,347.72125)rotate(-90 0.0625 -4.5)">4.2%</text></g></g></g><g class="trace bars" style="opacity:1"><g class="points"><g class="point"><path d="M23.68,373V180.92H42.63V373Z" style="vector-effect:none;opacity:1;stroke-width:.5px;fill:#ef553b;fill-opacity:1;stroke:#e5ecf6;stroke-opacity:1"/><text x="0" y="0" class="bartext bartext-outside" data-notex="1" text-anchor="middle" style="font-family:'Open Sans',verdana,arial,sans-serif;font-size:12px;fill:#2a3f5f;fill-opacity:1;white-space:pre" transform="translate(33.0925,165.529375)rotate(-90 0.0625 -4.5)">61.3%</text></g><g class="point"><path d="M71.05,373V276.62H89.99V373Z" style="vector-effect:none;opacity:1;stroke-width:.5px;fill:#ef553b;fill-opacity:1;stroke:#e5ecf6;stroke-opacity:1"/><text x="0" y="0" class="bartext bartext-outside" data-notex="1" text-anchor="middle" style="font-family:'Open Sans',verdana,arial,sans-serif;font-size:12px;fill:#2a3f5f;fill-opacity:1;white-space:pre" transform="translate(80.4575,261.229375)rotate(-90 0.0625 -4.5)">30.7%</text></g><g class="point"><path d="M165.77,373V310.31H184.72V373Z" style="vector-effect:none;opacity:1;stroke-width:.5px;fill:#ef553b;fill-opacity:1;stroke:#e5ecf6;stroke-opacity:1"/><text x="0" y="0" class="bartext bartext-outside" data-notex="1" text-anchor="middle" style="font-family:'Open Sans',verdana,arial,sans-serif;font-size:12px;fill:#2a3f5f;fill-opacity:1;white-space:pre" transform="translate(175.1825,294.919375)rotate(-90 0.0625 -4.5)">20.0%</text></g><g class="point"><path d="M260.5,373V354.2H279.45V373Z" style="vector-effect:none;opacity:1;stroke-width:.5px;fill:#ef553b;fill-opacity:1;stroke:#e5ecf6;stroke-opacity:1"/><text x="0" y="0" class="bartext bartext-outside" data-notex="1" text-anchor="middle" style="font-family:'Open Sans',verdana,arial,sans-serif;font-size:12px;fill:#2a3f5f;fill-opacity:1;white-space:pre" transform="translate(269.9125,342.23125)rotate(-90 0.0625 -4.5)">6.0%</text></g><g class="point"><path d="M355.23,373V364.14H374.17V373Z" style="vector-effect:none;opacity:1;stroke-width:.5px;fill:#ef553b;fill-opacity:1;stroke:#e5ecf6;stroke-opacity:1"/><text x="0" y="0" class="bartext bartext-outside" data-notex="1" text-anchor="middle" style="font-family:'Open Sans',verdana,arial,sans-serif;font-size:12px;fill:#2a3f5f;fill-opacity:1;white-space:pre" transform="translate(364.63750000000005,352.17125)rotate(-90 0.0625 -4.5)">2.8%</text></g><g class="point"><path d="M402.59,373V361.85H421.54V373Z" style="vector-effect:none;opacity:1;stroke-width:.5px;fill:#ef553b;fill-opacity:1;stroke:#e5ecf6;stroke-opacity:1"/><text x="0" y="0" class="bartext bartext-outside" data-notex="1" text-anchor="middle" style="font-family:'Open Sans',verdana,arial,sans-serif;font-size:12px;fill:#2a3f5f;fill-opacity:1;white-space:pre" transform="translate(412.0025,349.88125)rotate(-90 0.0625 -4.5)">3.6%</text></g><g class="point"><path d="M449.95,373V372.27H468.9V373Z" style="vector-effect:none;opacity:1;stroke-width:.5px;fill:#ef553b;fill-opacity:1;stroke:#e5ecf6;stroke-opacity:1"/><text x="0" y="0" class="bartext bartext-outside" data-notex="1" text-anchor="middle" style="font-family:'Open Sans',verdana,arial,sans-serif;font-size:12px;fill:#2a3f5f;fill-opacity:1;white-space:pre" transform="translate(459.36249999999995,360.30125)rotate(-90 0.0625 -4.5)">0.2%</text></g><g class="point"><path d="M497.32,373V371.66H516.26V373Z" style="vector-effect:none;opacity:1;stroke-width:.5px;fill:#ef553b;fill-opacity:1;stroke:#e5ecf6;stroke-opacity:1"/><text x="0" y="0" class="bartext bartext-outside" data-notex="1" text-anchor="middle" style="font-family:'Open Sans',verdana,arial,sans-serif;font-size:12px;fill:#2a3f5f;fill-opacity:1;white-space:pre" transform="translate(506.72749999999996,359.69125)rotate(-90 0.0625 -4.5)">0.4%</text></g><g class="point"><path d="M307.86,373V361.05H326.81V373Z" style="vector-effect:none;opacity:1;stroke-width:.5px;fill:#ef553b;fill-opacity:1;stroke:#e5ecf6;stroke-opacity:1"/><text x="0" y="0" class="bartext bartext-outside" data-notex="1" text-anchor="middle" style="font-family:'Open Sans',verdana,arial,sans-serif;font-size:12px;fill:#2a3f5f;fill-opacity:1;white-space:pre" transform="translate(317.27250000000004,349.08125)rotate(-90 0.0625 -4.5)">3.8%</text></g><g class="point"><path d="M213.14,373V359.84H232.08V373Z" style="vector-effect:none;opacity:1;stroke-width:.5px;fill:#ef553b;fill-opacity:1;stroke:#e5ecf6;stroke-opacity:1"/><text x="0" y="0" class="bartext bartext-outside" data-notex="1" text-anchor="middle" style="font-family:'Open Sans',verdana,arial,sans-serif;font-size:12px;fill:#2a3f5f;fill-opacity:1;white-space:pre" transform="translate(222.5475,347.87125)rotate(-90 0.0625 -4.5)">4.2%</text></g><g class="point"><path d="M118.41,373V373H137.35V373Z" style="vector-effect:none;opacity:1;stroke-width:.5px;fill:#ef553b;fill-opacity:1;stroke:#e5ecf6;stroke-opacity:1"/><text x="0" y="0" class="bartext bartext-outside" data-notex="1" text-anchor="middle" style="font-family:'Open Sans',verdana,arial,sans-serif;font-size:12px;fill:#2a3f5f;fill-opacity:1;white-space:pre" transform="translate(127.676875,363.765625)rotate(-90 0.203125 -4.5)">N/A</text></g></g></g></g></g><path d="M0,0" class="xlines-above crisp" style="fill:none"/><path d="M0,0" class="ylines-above crisp" style="fill:none"/><g class="xaxislayer-above"><g class="xtick"><text x="0" y="456" text-anchor="start" transform="translate(109.68,0) rotate(45,0,450)" style="font-family:'Open Sans',verdana,arial,sans-serif;font-size:12px;fill:#2a3f5f;fill-opacity:1;white-space:pre;opacity:1">VS Code</text></g><g class="xtick"><text x="0" y="456" text-anchor="start" transform="translate(157.05,0) rotate(45,0,450)" style="font-family:'Open Sans',verdana,arial,sans-serif;font-size:12px;fill:#2a3f5f;fill-opacity:1;white-space:pre;opacity:1">vi/vim/neovim</text></g><g class="xtick"><text x="0" y="456" text-anchor="start" transform="translate(204.41,0) rotate(45,0,450)" style="font-family:'Open Sans',verdana,arial,sans-serif;font-size:12px;fill:#2a3f5f;fill-opacity:1;white-space:pre;opacity:1"><tspan x="0" y="456" class="line" dy="0em">Rust Rover (dedicated IntelliJ</tspan><tspan x="0" y="456" class="line" dy="1.3em">Rust IDE)</tspan></text></g><g class="xtick"><text x="0" y="456" text-anchor="start" transform="translate(251.77,0) rotate(45,0,450)" style="font-family:'Open Sans',verdana,arial,sans-serif;font-size:12px;fill:#2a3f5f;fill-opacity:1;white-space:pre;opacity:1"><tspan x="0" y="456" class="line" dy="0em">IntelliJ/CLion/other JetBrains</tspan><tspan x="0" y="456" class="line" dy="1.3em">IDE + Rust plugin</tspan></text></g><g class="xtick"><text x="0" y="456" text-anchor="start" transform="translate(299.14,0) rotate(45,0,450)" style="font-family:'Open Sans',verdana,arial,sans-serif;font-size:12px;fill:#2a3f5f;fill-opacity:1;white-space:pre;opacity:1">Helix</text></g><g class="xtick"><text x="0" y="456" text-anchor="start" transform="translate(346.5,0) rotate(45,0,450)" style="font-family:'Open Sans',verdana,arial,sans-serif;font-size:12px;fill:#2a3f5f;fill-opacity:1;white-space:pre;opacity:1"><tspan x="0" y="456" class="line" dy="0em">Emacs (or derivatives like</tspan><tspan x="0" y="456" class="line" dy="1.3em">Doom Emacs, Spacemacs, etc.)</tspan></text></g><g class="xtick"><text x="0" y="456" text-anchor="start" transform="translate(393.86,0) rotate(45,0,450)" style="font-family:'Open Sans',verdana,arial,sans-serif;font-size:12px;fill:#2a3f5f;fill-opacity:1;white-space:pre;opacity:1">Other</text></g><g class="xtick"><text x="0" y="456" text-anchor="start" transform="translate(441.23,0) rotate(45,0,450)" style="font-family:'Open Sans',verdana,arial,sans-serif;font-size:12px;fill:#2a3f5f;fill-opacity:1;white-space:pre;opacity:1">Sublime Text</text></g><g class="xtick"><text x="0" y="456" text-anchor="start" transform="translate(488.59,0) rotate(45,0,450)" style="font-family:'Open Sans',verdana,arial,sans-serif;font-size:12px;fill:#2a3f5f;fill-opacity:1;white-space:pre;opacity:1">Visual Studio</text></g><g class="xtick"><text x="0" y="456" text-anchor="start" transform="translate(535.95,0) rotate(45,0,450)" style="font-family:'Open Sans',verdana,arial,sans-serif;font-size:12px;fill:#2a3f5f;fill-opacity:1;white-space:pre;opacity:1">Xcode</text></g><g class="xtick"><text x="0" y="456" text-anchor="start" transform="translate(583.3199999999999,0) rotate(45,0,450)" style="font-family:'Open Sans',verdana,arial,sans-serif;font-size:12px;fill:#2a3f5f;fill-opacity:1;white-space:pre;opacity:1">Atom</text></g></g><g class="yaxislayer-above"><g class="ytick"><text x="75" y="4.2" text-anchor="end" transform="translate(0,433)" style="font-family:'Open Sans',verdana,arial,sans-serif;font-size:12px;fill:#2a3f5f;fill-opacity:1;white-space:pre;opacity:1">0%</text></g><g class="ytick"><text x="75" y="4.2" text-anchor="end" style="font-family:'Open Sans',verdana,arial,sans-serif;font-size:12px;fill:#2a3f5f;fill-opacity:1;white-space:pre;opacity:1" transform="translate(0,370.31)">20%</text></g><g class="ytick"><text x="75" y="4.2" text-anchor="end" style="font-family:'Open Sans',verdana,arial,sans-serif;font-size:12px;fill:#2a3f5f;fill-opacity:1;white-space:pre;opacity:1" transform="translate(0,307.62)">40%</text></g><g class="ytick"><text x="75" y="4.2" text-anchor="end" style="font-family:'Open Sans',verdana,arial,sans-serif;font-size:12px;fill:#2a3f5f;fill-opacity:1;white-space:pre;opacity:1" transform="translate(0,244.93)">60%</text></g><g class="ytick"><text x="75" y="4.2" text-anchor="end" style="font-family:'Open Sans',verdana,arial,sans-serif;font-size:12px;fill:#2a3f5f;fill-opacity:1;white-space:pre;opacity:1" transform="translate(0,182.24)">80%</text></g><g class="ytick"><text x="75" y="4.2" text-anchor="end" style="font-family:'Open Sans',verdana,arial,sans-serif;font-size:12px;fill:#2a3f5f;fill-opacity:1;white-space:pre;opacity:1" transform="translate(0,119.55)">100%</text></g></g></g></g><defs id="topdefs-8a91a0"><clipPath id="legend8a91a0"><rect width="73" height="67" x="0" y="0"/></clipPath></defs><g class="infolayer"><g class="legend" pointer-events="all" transform="translate(617.42,60)"><rect width="73" height="67" x="0" y="0" class="bg" shape-rendering="crispEdges" style="stroke:#444;stroke-opacity:1;fill:#fff;fill-opacity:1;stroke-width:0"/><g class="scrollbox" clip-path="url(#legend8a91a0)"><text x="2" y="18.2" class="legendtitletext" text-anchor="start" style="font-family:'Open Sans',verdana,arial,sans-serif;font-size:14px;fill:#2a3f5f;fill-opacity:1;white-space:pre">Year</text><g class="groups"><g class="traces" transform="translate(0,32.7)" style="opacity:1"><text x="40" y="4.68" class="legendtext" text-anchor="start" style="font-family:'Open Sans',verdana,arial,sans-serif;font-size:12px;fill:#2a3f5f;fill-opacity:1;white-space:pre">2023</text><g class="layers" style="opacity:1"><g class="legendsymbols"><g class="legendpoints"><path d="M6,6H-6V-6H6Z" class="legendundefined" transform="translate(20,0)" style="stroke-width:.5px;fill:#636efa;fill-opacity:1;stroke:#e5ecf6;stroke-opacity:1"/></g></g></g><rect width="67.594" height="19" x="0" y="-9.5" class="legendtoggle" style="fill:#000;fill-opacity:0"/></g></g><g class="groups"><g class="traces" transform="translate(0,51.7)" style="opacity:1"><text x="40" y="4.68" class="legendtext" text-anchor="start" style="font-family:'Open Sans',verdana,arial,sans-serif;font-size:12px;fill:#2a3f5f;fill-opacity:1;white-space:pre">2022</text><g class="layers" style="opacity:1"><g class="legendsymbols"><g class="legendpoints"><path d="M6,6H-6V-6H6Z" class="legendundefined" transform="translate(20,0)" style="stroke-width:.5px;fill:#ef553b;fill-opacity:1;stroke:#e5ecf6;stroke-opacity:1"/></g></g></g><rect width="67.594" height="19" x="0" y="-9.5" class="legendtoggle" style="fill:#000;fill-opacity:0"/></g></g></g><rect width="0" height="0" x="0" y="0" class="scrollbar" rx="20" ry="3" style="fill:#808ba4;fill-opacity:1"/></g><g class="g-gtitle"><text x="35" y="30" class="gtitle" dy="0em" text-anchor="start" style="font-family:'Open Sans',verdana,arial,sans-serif;font-size:17px;fill:#2a3f5f;opacity:1;font-weight:400;white-space:pre"><tspan x="35" y="30" class="line" dy="0em"><tspan style="font-weight:700">Which editor or IDE setup do you use with Rust code on a regular basis?</tspan></tspan><tspan x="35" y="30" class="line" dy="1.3em"><tspan style="font-size:.8em">(total responses = 10480, multiple answers)</tspan></tspan></text></g><g class="g-ytitle"><text x="20.231" y="246.5" class="ytitle" text-anchor="middle" transform="rotate(-90,20.231250000000003,246.5)" style="font-family:'Open Sans',verdana,arial,sans-serif;font-size:14px;fill:#2a3f5f;opacity:1;font-weight:400;white-space:pre">Percent out of all responses (%)</text></g></g></svg>